:SAMPLES-PER-SECOND 30
:FRAME-RANGE 1-2091
:FULLY-SPECIFIED
:DEGREES
523
root  -64.4288 38.7594 -36.3025 179.441 -2.29839 178.719
RightUpLeg  3.58091 24.7218 5.54122
RightLeg  20.5186 -5.37481 -2.46606
RightFoot  -20.2311 -0.186147 -0.633739
RightToes  5.82063e-011 0 -3.6325e-017
Spine  4.45849 -1.42606 0.00181014
Spine1  0.589027 -1.59448 0.874037
HEad  5.39042 -55.4561 2.21416
LeftShoulder1  1.28641 -0.125347 -29.369
LeftArm  10.5526 23.2653 -25.1224
LeftForeArm  3.01055 -8.90466 -15.5513
LeftHand  0.307336 -0.0705387 -6.57529
RightShoulder  6.50151 8.29154 48.2914
RightArm  29.7449 1.01724 20.1887
RightForeArm  13.4624 38.5923 8.10863
RightHand  0.296512 3.27486 3.73314
LeftUpLeg  -11.0122 10.153 11.5499
LeftLeg  6.97438 -12.5606 -2.25375
LeftFoot  2.92021 1.75033 -14.076
LeftToes  -6.27584e-011 -2.25241e-010 2.80627e-011
524
root  -65.1293 38.5823 -37.0745 179.126 1.51093 178.006
RightUpLeg  2.79263 26.4213 3.93516
RightLeg  25.0071 -3.65192 -2.07909
RightFoot  -21.5045 -0.0186136 1.42828
RightToes  5.82063e-011 0 -3.6325e-017
Spine  5.96358 -1.41798 -3.69604
Spine1  -0.127689 -2.10525 2.12435
HEad  5.38635 -54.7079 2.62048
LeftShoulder1  1.28461 -0.0649036 -29.9268
LeftArm  5.52018 22.3191 -24.969
LeftForeArm  7.44602 -5.41617 -16.5989
LeftHand  0.316252 -0.336663 -6.41674
RightShoulder  6.13121 7.48047 48.9112
RightArm  33.416 1.66549 19.3213
RightForeArm  7.25633 30.5132 6.26809
RightHand  0.248172 3.39045 3.03675
LeftUpLeg  -11.2859 11.563 10.6291
LeftLeg  12.984 -10.095 -2.85611
LeftFoot  -0.709142 1.35014 -14.4033
LeftToes  -6.27584e-011 -2.25241e-010 2.80627e-011
525
root  -65.7877 38.3756 -37.7658 179.285 5.31061 176.748
RightUpLeg  -1.91761 23.8209 -0.0503628
RightLeg  33.7403 -0.104422 -0.321565
RightFoot  -20.9328 0.337417 5.71033
RightToes  5.82063e-011 0 -3.6325e-017
Spine  6.69312 -1.31189 -7.47632
Spine1  -0.319499 -2.51519 3.02263
HEad  6.01128 -53.1984 3.34472
LeftShoulder1  1.34337 -0.174637 -30.4585
LeftArm  4.42959 20.0618 -24.9041
LeftForeArm  7.62912 -3.22866 -17.2924
LeftHand  0.285181 -0.0912699 -6.07588
RightShoulder  6.25211 7.27368 50.8195
RightArm  35.2928 2.88219 17.737
RightForeArm  0.241559 20.0826 7.03318
RightHand  0.117544 3.47813 1.29096
LeftUpLeg  -11.6929 14.8827 8.97713
LeftLeg  17.828 -9.76038 -3.56837
LeftFoot  -4.54548 0.894906 -14.5508
LeftToes  -6.27584e-011 -2.25241e-010 2.80627e-011
526
root  -66.4651 38.3639 -38.4627 179.445 9.53326 176.184
RightUpLeg  -7.7446 18.2872 -3.85895
RightLeg  42.7521 3.00584 2.68648
RightFoot  -15.7939 0.349865 11.728
RightToes  5.82063e-011 0 -3.6325e-017
Spine  7.32108 -1.33276 -8.14473
Spine1  -0.735785 -2.47101 1.36827
HEad  6.14507 -51.1095 3.34598
LeftShoulder1  1.41888 -0.336926 -30.8877
LeftArm  1.39712 16.6926 -24.9868
LeftForeArm  9.26807 0.216312 -17.7771
LeftHand  0.269623 0.168064 -6.0667
RightShoulder  6.4961 7.56278 51.4102
RightArm  4.51065 3.48958 15.56
RightForeArm  21.2321 2.76004 15.4247
RightHand  -0.046587 3.08991 -0.868554
LeftUpLeg  -10.5311 17.3594 8.15198
LeftLeg  19.4856 -8.16334 -3.70116
LeftFoot  -6.99727 0.567438 -13.8051
LeftToes  -6.27584e-011 -2.25241e-010 2.80627e-011
527
root  -67.0781 38.4674 -39.179 179.992 13.6421 175.986
RightUpLeg  -14.2481 12.5123 -6.2211
RightLeg  50.5665 2.34932 2.71279
RightFoot  -7.89133 -0.478491 14.0322
RightToes  5.82063e-011 0 -3.6325e-017
Spine  7.35685 -1.32542 -8.59272
Spine1  -1.10757 -2.4424 0.932021
HEad  5.74958 -49.2638 2.91866
LeftShoulder1  1.51652 -0.565738 -31.2154
LeftArm  0.782308 13.6162 -25.3734
LeftForeArm  9.61303 1.01865 -17.838
LeftHand  0.253732 0.582721 -6.26889
RightShoulder  6.46493 7.679 50.6454
RightArm  -1.96149 1.86686 14.4028
RightForeArm  15.7864 -5.14666 16.1791
RightHand  -0.110056 1.14756 -2.07272
LeftUpLeg  -9.16054 18.0495 7.53556
LeftLeg  19.5395 -5.04843 -3.16893
LeftFoot  -8.69534 0.367238 -13.6016
LeftToes  -6.27584e-011 -2.25241e-010 2.80627e-011
528
root  -67.5509 38.6015 -39.9389 -179.244 16.8699 176.345
RightUpLeg  -19.3304 6.24383 -6.18484
RightLeg  54.8286 -1.17089 -2.19107
RightFoot  -3.37358 -0.865287 12.0514
RightToes  5.82063e-011 0 -3.6325e-017
Spine  7.62492 -1.53171 -9.00461
Spine1  -1.93418 -2.73707 1.46486
HEad  4.92181 -46.9287 3.31467
LeftShoulder1  1.52014 -0.569196 -31.2729
LeftArm  0.881991 10.8019 -25.8505
LeftForeArm  10.8258 0.540884 -17.7155
LeftHand  0.245161 0.181244 -5.53503
RightShoulder  5.78385 6.68176 49.7609
RightArm  2.04946 0.09947 13.3236
RightForeArm  9.20078 -6.26953 17.3175
RightHand  -0.0365305 -0.114405 -0.795695
LeftUpLeg  -7.64744 18.516 7.65878
LeftLeg  18.8676 -2.42696 -3.22957
LeftFoot  -9.92281 0.223346 -13.209
LeftToes  -6.27584e-011 -2.25241e-010 2.80627e-011
529
root  -67.9229 38.8514 -40.7057 -178.343 19.7289 177.177
RightUpLeg  -23.0431 0.161863 -4.58512
RightLeg  55.2222 -3.64887 -6.04216
RightFoot  -4.01586 -0.760595 11.4172
RightToes  5.82063e-011 0 -3.6325e-017
Spine  7.70739 -1.82833 -8.87002
Spine1  -2.51509 -3.04546 2.24319
HEad  3.98118 -44.8909 4.26216
LeftShoulder1  1.54397 -0.666406 -30.9736
LeftArm  -0.52904 8.42423 -26.3283
LeftForeArm  12.1446 -0.911107 -17.2136
LeftHand  0.234816 -0.00246213 -5.09711
RightShoulder  5.17006 5.67958 49.3432
RightArm  6.43107 -1.69884 11.2854
RightForeArm  13.3294 -5.14585 17.7529
RightHand  0.107677 0.775154 1.95633
LeftUpLeg  -5.43655 16.2795 8.17747
LeftLeg  16.4736 2.19097 -3.00459
LeftFoot  -10.1989 0.196258 -13.5281
LeftToes  -6.27584e-011 -2.25241e-010 2.80627e-011
530
root  -68.1985 39.063 -41.4753 -177.29 22.4215 178.222
RightUpLeg  -25.858 -4.66854 -1.97695
RightLeg  51.8495 -4.96066 -7.10314
RightFoot  -4.51018 -0.768408 12.3135
RightToes  5.82063e-011 0 -3.6325e-017
Spine  7.60699 -2.16578 -8.69218
Spine1  -2.71944 -3.40317 3.3319
HEad  2.84653 -42.6154 5.30339
LeftShoulder1  1.53229 -0.668619 -30.6716
LeftArm  -0.591701 6.29884 -26.493
LeftForeArm  11.0615 -3.80524 -16.4519
LeftHand  0.21743 -0.191942 -4.53551
RightShoulder  4.30614 4.27013 48.5625
RightArm  14.6821 -2.98696 10.1084
RightForeArm  16.812 -3.12958 18.3051
RightHand  0.227645 2.24085 3.28168
LeftUpLeg  -3.34455 14.8934 8.74301
LeftLeg  14.1409 5.82252 -3.06433
LeftFoot  -10.3518 0.180905 -13.7406
LeftToes  -6.27584e-011 -2.25241e-010 2.80627e-011
531
root  -68.3955 39.2116 -42.2361 -176.18 24.8814 179.29
RightUpLeg  -27.9139 -8.41332 1.2136
RightLeg  45.4506 -5.64297 -6.4111
RightFoot  -4.67479 -0.681839 11.1254
RightToes  5.82063e-011 0 -3.6325e-017
Spine  7.48043 -2.61321 -8.37075
Spine1  -2.7638 -3.8318 4.24458
HEad  2.11551 -40.3153 6.01409
LeftShoulder1  1.58209 -0.865506 -30.1529
LeftArm  0.715437 4.68932 -26.3963
LeftForeArm  8.57731 -7.76767 -15.0842
LeftHand  0.20186 0.0205322 -4.40445
RightShoulder  3.41384 2.82719 47.2851
RightArm  23.8269 -4.57036 10.2129
RightForeArm  15.9995 -0.91448 18.73
RightHand  0.12967 2.35156 1.75486
LeftUpLeg  -1.35127 14.3882 9.23512
LeftLeg  11.8939 8.24073 -3.37401
LeftFoot  -10.4898 0.164308 -13.633
LeftToes  -6.27584e-011 -2.25241e-010 2.80627e-011
532
root  -68.3816 39.2728 -43.0283 -175.832 29.523 -179.922
RightUpLeg  -28.157 -8.75489 4.41499
RightLeg  36.8124 -7.60597 -6.32193
RightFoot  -5.23227 -0.645277 11.3871
RightToes  5.82063e-011 0 -3.6325e-017
Spine  7.25958 -1.89734 -8.67725
Spine1  -2.28535 -3.15525 4.85756
HEad  1.54327 -37.7397 5.76112
LeftShoulder1  1.68677 -1.2279 -29.588
LeftArm  3.45547 3.43645 -25.8344
LeftForeArm  5.06258 -11.8118 -13.1553
LeftHand  0.19856 -0.458782 -3.9193
RightShoulder  2.69822 1.66346 45.788
RightArm  28.3427 -6.81121 10.5686
RightForeArm  13.5218 0.00112503 18.9073
RightHand  0.0966473 2.69786 1.17754
LeftUpLeg  2.58324 15.1006 10.0603
LeftLeg  8.73972 11.5248 -4.41209
LeftFoot  -10.4176 0.174258 -13.8491
LeftToes  -6.27584e-011 -2.25241e-010 2.80627e-011
533
root  -68.3026 39.2332 -43.8001 -175.938 33.8221 -179.755
RightUpLeg  -27.0267 -9.20613 7.04983
RightLeg  25.9491 -7.71557 -4.286
RightFoot  -5.09454 -0.613225 10.5717
RightToes  5.82063e-011 0 -3.6325e-017
Spine  7.52385 -1.01103 -9.52482
Spine1  -2.2231 -2.40126 5.61538
HEad  1.3462 -35.7161 5.82667
LeftShoulder1  1.68353 -1.25743 -29.2941
LeftArm  4.81934 0.871055 -24.8065
LeftForeArm  3.47696 -13.8113 -11.9127
LeftHand  0.184715 -1.049 -3.24555
RightShoulder  1.80574 0.0495359 44.6132
RightArm  30.4441 -8.66355 10.7256
RightForeArm  8.8049 0.282773 19.1349
RightHand  0.168235 2.4205 2.30735
LeftUpLeg  6.24255 15.0803 9.78034
LeftLeg  6.03217 14.9835 -5.02335
LeftFoot  -10.7336 0.141876 -14.6125
LeftToes  -6.27584e-011 -2.25241e-010 2.80627e-011
